<?xml version="1.0" encoding="UTF-8"?>
<!DOCTYPE svg PUBLIC "-//W3C//DTD SVG 1.1//EN" "http://www.w3.org/Graphics/SVG/1.1/DTD/svg11.dtd">
<svg xmlns="http://www.w3.org/2000/svg" version="1.1" width="1500px" height="1500px" style="shape-rendering:geometricPrecision; text-rendering:geometricPrecision; image-rendering:optimizeQuality; fill-rule:evenodd; clip-rule:evenodd" xmlns:xlink="http://www.w3.org/1999/xlink">
<g><path style="opacity:0.75" fill="#000000" d="M 748.5,530.5 C 749.376,530.369 750.043,530.702 750.5,531.5C 751.074,533.059 751.74,534.559 752.5,536C 754.577,536.192 756.577,536.692 758.5,537.5C 756.874,538.99 755.208,540.49 753.5,542C 756.446,548.207 755.112,549.04 749.5,544.5C 748.126,545.711 746.626,546.711 745,547.5C 744.5,547.167 744,546.833 743.5,546.5C 744.706,544.484 744.706,542.484 743.5,540.5C 742.167,539.5 740.833,538.5 739.5,537.5C 744.586,537.573 747.586,535.239 748.5,530.5 Z"/></g>
<g><path style="opacity:0.706" fill="#000000" d="M 726.5,535.5 C 728.564,535.762 729.897,536.929 730.5,539C 736.109,539.116 736.776,540.782 732.5,544C 733.293,545.085 733.96,546.252 734.5,547.5C 732.587,548.051 730.587,548.218 728.5,548C 727.667,548.833 726.833,549.667 726,550.5C 725.808,548.423 725.308,546.423 724.5,544.5C 719.468,541.894 720.135,540.561 726.5,540.5C 726.5,538.833 726.5,537.167 726.5,535.5 Z"/></g>
<g><path style="opacity:0.699" fill="#000000" d="M 770.5,535.5 C 772.256,536.552 772.923,538.219 772.5,540.5C 777.786,540.387 778.453,541.72 774.5,544.5C 773.692,546.423 773.192,548.423 773,550.5C 771.667,549.167 770.333,547.833 769,546.5C 767.759,548.421 766.259,548.754 764.5,547.5C 766.105,544.42 765.438,541.92 762.5,540C 766.187,540.069 768.854,538.569 770.5,535.5 Z"/></g>
<g><path style="opacity:0.614" fill="#000000" d="M 710.5,542.5 C 712.377,542.9 713.877,543.9 715,545.5C 718.973,544.326 719.473,545.326 716.5,548.5C 718.178,551.43 717.678,552.43 715,551.5C 713.739,551.759 712.739,552.426 712,553.5C 711.357,551.07 709.857,549.403 707.5,548.5C 709.978,547.278 710.978,545.278 710.5,542.5 Z"/></g>
<g><path style="opacity:0.624" fill="#000000" d="M 786.5,542.5 C 787.202,545.203 788.869,547.203 791.5,548.5C 788.833,549.167 787.167,550.833 786.5,553.5C 785.148,551.364 783.482,551.03 781.5,552.5C 781.167,552.167 780.833,551.833 780.5,551.5C 781.167,550.5 781.833,549.5 782.5,548.5C 781.833,547.5 781.167,546.5 780.5,545.5C 783.116,546.195 785.116,545.195 786.5,542.5 Z"/></g>
<g><path style="opacity:0.904" fill="#000000" d="M 734.5,550.5 C 779.721,546.863 814.554,563.863 839,601.5C 859.248,641.498 856.581,679.832 831,716.5C 803.706,748.551 769.206,761.051 727.5,754C 675.747,740.176 648.081,706.51 644.5,653C 649.19,596.484 679.19,562.317 734.5,550.5 Z M 747.5,556.5 C 752.493,556.997 753.493,559.164 750.5,563C 747.433,564.164 745.767,563.164 745.5,560C 745.862,558.566 746.528,557.399 747.5,556.5 Z M 723.5,559.5 C 728.026,560.369 729.026,562.536 726.5,566C 720.142,566.121 719.142,563.954 723.5,559.5 Z M 771.5,559.5 C 775.976,559.8 777.31,561.967 775.5,566C 769.339,566.878 768.006,564.711 771.5,559.5 Z M 701.5,568.5 C 706.819,571.123 706.819,573.79 701.5,576.5C 697.533,573.744 697.533,571.077 701.5,568.5 Z M 795.5,568.5 C 800.807,571.127 800.807,573.794 795.5,576.5C 791.533,573.744 791.533,571.077 795.5,568.5 Z M 737.5,570.5 C 780.992,567.981 811.159,586.648 828,626.5C 838.409,663.598 828.909,694.431 799.5,719C 764.401,742.565 729.734,741.898 695.5,717C 662.94,686.143 656.773,650.643 677,610.5C 691.326,588.259 711.492,574.925 737.5,570.5 Z M 745.5,575.5 C 786.711,577.35 813.211,598.017 825,637.5C 830.234,677.22 815.067,706.054 779.5,724C 741.757,737.191 710.257,728.358 685,697.5C 664.944,665.239 666.277,633.905 689,603.5C 704.25,586.792 723.083,577.458 745.5,575.5 Z M 681.5,583.5 C 686.026,584.369 687.026,586.536 684.5,590C 678.142,590.121 677.142,587.954 681.5,583.5 Z M 813.5,583.5 C 816.352,583.352 818.019,584.686 818.5,587.5C 816.167,592.833 813.833,592.833 811.5,587.5C 811.752,585.927 812.418,584.594 813.5,583.5 Z M 829.5,602.5 C 834.594,604.872 834.761,607.539 830,610.5C 825.544,608.031 825.377,605.365 829.5,602.5 Z M 665.5,603.5 C 672.399,604.277 673.066,606.61 667.5,610.5C 663.502,608.888 662.836,606.555 665.5,603.5 Z M 656.5,625.5 C 660.935,625.752 662.268,627.919 660.5,632C 654.738,632.418 653.404,630.251 656.5,625.5 Z M 837.5,625.5 C 842.651,625.654 843.984,627.82 841.5,632C 835.738,632.418 834.404,630.251 837.5,625.5 Z M 653.5,649.5 C 658.493,649.997 659.493,652.164 656.5,656C 651.382,655.824 650.382,653.658 653.5,649.5 Z M 840.5,649.5 C 843.833,648.833 845.833,650.167 846.5,653.5C 843.567,657.6 840.901,657.434 838.5,653C 839.305,651.887 839.972,650.721 840.5,649.5 Z M 656.5,673.5 C 660.976,673.8 662.31,675.967 660.5,680C 654.738,680.418 653.404,678.251 656.5,673.5 Z M 837.5,673.5 C 842.682,673.786 844.016,675.953 841.5,680C 835.738,680.418 834.404,678.251 837.5,673.5 Z M 667.5,695.5 C 672.826,698.178 672.826,700.845 667.5,703.5C 662.227,700.743 662.227,698.076 667.5,695.5 Z M 829.5,695.5 C 834.819,698.123 834.819,700.79 829.5,703.5C 825.533,700.744 825.533,698.077 829.5,695.5 Z M 680.5,715.5 C 685.651,715.654 686.984,717.82 684.5,722C 681.186,723.165 679.186,721.998 678.5,718.5C 679.193,717.482 679.859,716.482 680.5,715.5 Z M 812.5,715.5 C 818.555,714.942 819.888,717.109 816.5,722C 811.795,722.106 810.462,719.939 812.5,715.5 Z M 701.5,729.5 C 706.819,732.123 706.819,734.79 701.5,737.5C 697.533,734.744 697.533,732.077 701.5,729.5 Z M 795.5,729.5 C 800.826,732.178 800.826,734.845 795.5,737.5C 791.533,734.744 791.533,732.077 795.5,729.5 Z M 722.5,739.5 C 727.651,739.654 728.984,741.82 726.5,746C 721.177,746.18 719.843,744.014 722.5,739.5 Z M 771.5,739.5 C 776.747,739.64 777.747,741.806 774.5,746C 769.382,745.824 768.382,743.658 771.5,739.5 Z M 746.5,742.5 C 752.016,742.473 753.349,744.64 750.5,749C 745.57,749.427 744.237,747.26 746.5,742.5 Z"/></g>
<g><path style="opacity:0.609" fill="#000000" d="M 695.5,554.5 C 696.833,554.5 698.167,554.5 699.5,554.5C 699.5,555.833 699.5,557.167 699.5,558.5C 695.529,559.204 694.195,557.871 695.5,554.5 Z"/></g>
<g><path style="opacity:0.609" fill="#000000" d="M 799.5,554.5 C 801.716,554.275 803.383,555.108 804.5,557C 803.095,558.269 801.429,558.769 799.5,558.5C 799.5,557.167 799.5,555.833 799.5,554.5 Z"/></g>
<g><path style="opacity:0.61" fill="#000000" d="M 688.5,558.5 C 689.873,558.343 691.207,558.51 692.5,559C 693.674,561.829 692.674,562.829 689.5,562C 688.663,560.989 688.33,559.822 688.5,558.5 Z"/></g>
<g><path style="opacity:0.576" fill="#000000" d="M 805.5,558.5 C 807.167,558.5 808.833,558.5 810.5,558.5C 810.65,562.161 809.15,563.161 806,561.5C 805.517,560.552 805.351,559.552 805.5,558.5 Z"/></g>
<g><path style="opacity:0.579" fill="#000000" d="M 682.5,562.5 C 684.665,562.116 686.332,562.783 687.5,564.5C 686.332,566.217 684.665,566.884 682.5,566.5C 682.5,565.167 682.5,563.833 682.5,562.5 Z"/></g>
<g><path style="opacity:0.575" fill="#000000" d="M 812.5,562.5 C 813.833,562.5 815.167,562.5 816.5,562.5C 816.5,563.833 816.5,565.167 816.5,566.5C 812.56,567.234 811.227,565.901 812.5,562.5 Z"/></g>
<g><path style="opacity:0.494" fill="#000000" d="M 677.5,566.5 C 681.161,566.35 682.161,567.85 680.5,571C 676.707,571.487 675.707,569.987 677.5,566.5 Z"/></g>
<g><path style="opacity:0.494" fill="#000000" d="M 818.5,566.5 C 822.161,566.35 823.161,567.85 821.5,571C 817.707,571.487 816.707,569.987 818.5,566.5 Z"/></g>
<g><path style="opacity:0.577" fill="#000000" d="M 671.5,571.5 C 672.833,571.5 674.167,571.5 675.5,571.5C 675.884,573.665 675.217,575.332 673.5,576.5C 671.783,575.332 671.116,573.665 671.5,571.5 Z"/></g>
<g><path style="opacity:0.578" fill="#000000" d="M 823.5,571.5 C 824.833,571.5 826.167,571.5 827.5,571.5C 827.884,573.665 827.217,575.332 825.5,576.5C 823.783,575.332 823.116,573.665 823.5,571.5 Z"/></g>
<g><path style="opacity:0.528" fill="#000000" d="M 740.5,573.5 C 778.765,572.038 806.265,588.371 823,622.5C 836.724,665.187 824.89,698.687 787.5,723C 750.226,739.983 717.059,734.149 688,705.5C 665.201,675.948 662.535,644.615 680,611.5C 694.519,589.825 714.686,577.158 740.5,573.5 Z M 745.5,575.5 C 723.083,577.458 704.25,586.792 689,603.5C 666.277,633.905 664.944,665.239 685,697.5C 710.257,728.358 741.757,737.191 779.5,724C 815.067,706.054 830.234,677.22 825,637.5C 813.211,598.017 786.711,577.35 745.5,575.5 Z"/></g>
<g><path style="opacity:0.547" fill="#000000" d="M 666.5,576.5 C 670.161,576.35 671.161,577.85 669.5,581C 666.123,581.08 665.123,579.58 666.5,576.5 Z"/></g>
<g><path style="opacity:0.546" fill="#000000" d="M 829.5,576.5 C 833.619,577.368 834.119,579.034 831,581.5C 828.389,580.5 827.889,578.833 829.5,576.5 Z"/></g>
<g><path style="opacity:0.652" fill="#000000" d="M 661.5,582.5 C 662.833,582.5 664.167,582.5 665.5,582.5C 665.5,583.833 665.5,585.167 665.5,586.5C 664.167,586.5 662.833,586.5 661.5,586.5C 661.5,585.167 661.5,583.833 661.5,582.5 Z"/></g>
<g><path style="opacity:0.646" fill="#000000" d="M 833.5,582.5 C 834.833,582.5 836.167,582.5 837.5,582.5C 837.5,583.833 837.5,585.167 837.5,586.5C 836.167,586.5 834.833,586.5 833.5,586.5C 833.5,585.167 833.5,583.833 833.5,582.5 Z"/></g>
<g><path style="opacity:0.607" fill="#000000" d="M 657.5,588.5 C 660.5,588.167 661.833,589.5 661.5,592.5C 657.56,593.234 656.227,591.901 657.5,588.5 Z"/></g>
<g><path style="opacity:0.58" fill="#000000" d="M 837.5,588.5 C 839.167,588.5 840.833,588.5 842.5,588.5C 842.65,592.161 841.15,593.161 838,591.5C 837.517,590.552 837.351,589.552 837.5,588.5 Z"/></g>
<g><path style="opacity:0.577" fill="#000000" d="M 653.5,594.5 C 656.5,594.167 657.833,595.5 657.5,598.5C 655.833,598.5 654.167,598.5 652.5,598.5C 652.433,597.041 652.766,595.708 653.5,594.5 Z"/></g>
<g><path style="opacity:0.577" fill="#000000" d="M 842.5,594.5 C 845.5,594.167 846.833,595.5 846.5,598.5C 844.833,598.5 843.167,598.5 841.5,598.5C 841.433,597.041 841.766,595.708 842.5,594.5 Z"/></g>
<g><path style="opacity:0.903" fill="#000000" d="M 702.5,599.5 C 716.167,599.5 729.833,599.5 743.5,599.5C 743.5,600.5 743.5,601.5 743.5,602.5C 740.15,602.335 736.817,602.502 733.5,603C 732.299,603.903 731.465,605.069 731,606.5C 730.016,636.586 730.349,666.586 732,696.5C 746.425,697.656 760.925,697.823 775.5,697C 782.573,694.928 787.406,690.428 790,683.5C 791.274,676.897 791.774,670.23 791.5,663.5C 792.833,663.5 794.167,663.5 795.5,663.5C 795.5,676.833 795.5,690.167 795.5,703.5C 764.167,703.5 732.833,703.5 701.5,703.5C 701.5,701.5 701.5,699.5 701.5,697.5C 704.85,697.665 708.183,697.498 711.5,697C 712.701,696.097 713.535,694.931 714,693.5C 714.667,664.833 714.667,636.167 714,607.5C 711.342,603.437 707.509,601.771 702.5,602.5C 702.5,601.5 702.5,600.5 702.5,599.5 Z"/></g>
<g><path style="opacity:0.609" fill="#000000" d="M 650.5,600.5 C 653.389,600.999 654.056,602.499 652.5,605C 651.552,605.483 650.552,605.649 649.5,605.5C 649.366,603.708 649.699,602.042 650.5,600.5 Z"/></g>
<g><path style="opacity:0.574" fill="#000000" d="M 846.5,600.5 C 847.5,600.5 848.5,600.5 849.5,600.5C 849.5,602.167 849.5,603.833 849.5,605.5C 845.716,605.475 844.716,603.808 846.5,600.5 Z"/></g>
<g><path style="opacity:0.549" fill="#000000" d="M 646.5,607.5 C 647.833,607.5 649.167,607.5 650.5,607.5C 650.034,612.584 648.368,613.25 645.5,609.5C 645.863,608.817 646.196,608.15 646.5,607.5 Z"/></g>
<g><path style="opacity:0.575" fill="#000000" d="M 848.5,607.5 C 850.665,607.116 852.332,607.783 853.5,609.5C 852.332,611.217 850.665,611.884 848.5,611.5C 848.5,610.167 848.5,608.833 848.5,607.5 Z"/></g>
<g><path style="opacity:0.651" fill="#000000" d="M 643.5,614.5 C 644.833,614.5 646.167,614.5 647.5,614.5C 647.5,615.833 647.5,617.167 647.5,618.5C 646.167,618.5 644.833,618.5 643.5,618.5C 643.5,617.167 643.5,615.833 643.5,614.5 Z"/></g>
<g><path style="opacity:0.651" fill="#000000" d="M 851.5,614.5 C 852.833,614.5 854.167,614.5 855.5,614.5C 855.5,615.833 855.5,617.167 855.5,618.5C 854.167,618.5 852.833,618.5 851.5,618.5C 851.5,617.167 851.5,615.833 851.5,614.5 Z"/></g>
<g><path style="opacity:0.651" fill="#000000" d="M 641.5,621.5 C 642.833,621.5 644.167,621.5 645.5,621.5C 645.5,622.833 645.5,624.167 645.5,625.5C 644.167,625.5 642.833,625.5 641.5,625.5C 641.5,624.167 641.5,622.833 641.5,621.5 Z"/></g>
<g><path style="opacity:0.575" fill="#000000" d="M 853.5,621.5 C 855.665,621.116 857.332,621.783 858.5,623.5C 857.332,625.217 855.665,625.884 853.5,625.5C 853.5,624.167 853.5,622.833 853.5,621.5 Z"/></g>
<g><path style="opacity:0.65" fill="#000000" d="M 639.5,628.5 C 640.833,628.5 642.167,628.5 643.5,628.5C 643.5,629.833 643.5,631.167 643.5,632.5C 642.167,632.5 640.833,632.5 639.5,632.5C 639.5,631.167 639.5,629.833 639.5,628.5 Z"/></g>
<g><path style="opacity:0.648" fill="#000000" d="M 855.5,628.5 C 856.833,628.5 858.167,628.5 859.5,628.5C 859.5,629.833 859.5,631.167 859.5,632.5C 858.167,632.5 856.833,632.5 855.5,632.5C 855.5,631.167 855.5,629.833 855.5,628.5 Z"/></g>
<g><path style="opacity:0.611" fill="#000000" d="M 638.5,635.5 C 642.161,635.35 643.161,636.85 641.5,640C 640.551,640.617 639.718,640.451 639,639.5C 638.51,638.207 638.343,636.873 638.5,635.5 Z"/></g>
<g><path style="opacity:0.547" fill="#000000" d="M 857.5,635.5 C 862.34,636.188 862.673,637.855 858.5,640.5C 856.296,639.218 855.962,637.551 857.5,635.5 Z"/></g>
<g><path style="opacity:0.579" fill="#000000" d="M 638.5,642.5 C 641.084,643.048 642.084,644.715 641.5,647.5C 640.167,647.5 638.833,647.5 637.5,647.5C 637.366,645.708 637.699,644.042 638.5,642.5 Z"/></g>
<g><path style="opacity:0.609" fill="#000000" d="M 858.5,642.5 C 861.084,643.048 862.084,644.715 861.5,647.5C 857.716,647.475 856.716,645.808 858.5,642.5 Z"/></g>
<g><path style="opacity:0.577" fill="#000000" d="M 637.5,650.5 C 638.833,650.5 640.167,650.5 641.5,650.5C 641.5,651.833 641.5,653.167 641.5,654.5C 637.56,655.234 636.227,653.901 637.5,650.5 Z"/></g>
<g><path style="opacity:0.573" fill="#000000" d="M 857.5,650.5 C 859.665,650.116 861.332,650.783 862.5,652.5C 861.332,654.217 859.665,654.884 857.5,654.5C 857.5,653.167 857.5,651.833 857.5,650.5 Z"/></g>
<g><path style="opacity:0.575" fill="#000000" d="M 637.5,657.5 C 638.833,657.5 640.167,657.5 641.5,657.5C 641.884,659.665 641.217,661.332 639.5,662.5C 637.783,661.332 637.116,659.665 637.5,657.5 Z"/></g>
<g><path style="opacity:0.615" fill="#000000" d="M 857.5,657.5 C 858.833,657.5 860.167,657.5 861.5,657.5C 861.769,659.429 861.269,661.095 860,662.5C 858.108,661.383 857.275,659.716 857.5,657.5 Z"/></g>
<g><path style="opacity:0.547" fill="#000000" d="M 639.5,664.5 C 641.252,664.418 642.252,665.251 642.5,667C 641.125,670.069 639.459,670.236 637.5,667.5C 638.193,666.482 638.859,665.482 639.5,664.5 Z"/></g>
<g><path style="opacity:0.494" fill="#000000" d="M 857.5,664.5 C 861.161,664.35 862.161,665.85 860.5,669C 856.707,669.487 855.707,667.987 857.5,664.5 Z"/></g>
<g><path style="opacity:0.549" fill="#000000" d="M 856.5,671.5 C 859.487,671.948 860.487,673.448 859.5,676C 855.707,676.487 854.707,674.987 856.5,671.5 Z"/></g>
<g><path style="opacity:0.65" fill="#000000" d="M 639.5,672.5 C 640.833,672.5 642.167,672.5 643.5,672.5C 643.5,673.833 643.5,675.167 643.5,676.5C 642.167,676.5 640.833,676.5 639.5,676.5C 639.5,675.167 639.5,673.833 639.5,672.5 Z"/></g>
<g><path style="opacity:0.581" fill="#000000" d="M 641.5,679.5 C 642.833,679.5 644.167,679.5 645.5,679.5C 645.5,680.833 645.5,682.167 645.5,683.5C 641.56,684.234 640.227,682.901 641.5,679.5 Z"/></g>
<g><path style="opacity:0.612" fill="#000000" d="M 854.5,679.5 C 855.833,679.5 857.167,679.5 858.5,679.5C 858.114,683.738 856.448,684.404 853.5,681.5C 853.863,680.817 854.196,680.15 854.5,679.5 Z"/></g>
<g><path style="opacity:0.581" fill="#000000" d="M 643.5,686.5 C 644.833,686.5 646.167,686.5 647.5,686.5C 647.5,687.833 647.5,689.167 647.5,690.5C 643.56,691.234 642.227,689.901 643.5,686.5 Z"/></g>
<g><path style="opacity:0.613" fill="#000000" d="M 851.5,686.5 C 852.873,686.343 854.207,686.51 855.5,687C 856.674,689.829 855.674,690.829 852.5,690C 851.663,688.989 851.33,687.822 851.5,686.5 Z"/></g>
<g><path style="opacity:0.576" fill="#000000" d="M 850.5,692.5 C 852.759,693.344 853.759,695.011 853.5,697.5C 848.967,697.42 847.967,695.754 850.5,692.5 Z"/></g>
<g><path style="opacity:0.576" fill="#000000" d="M 645.5,693.5 C 647.665,693.116 649.332,693.783 650.5,695.5C 649.332,697.217 647.665,697.884 645.5,697.5C 645.5,696.167 645.5,694.833 645.5,693.5 Z"/></g>
<g><path style="opacity:0.496" fill="#000000" d="M 649.5,699.5 C 653.161,699.35 654.161,700.85 652.5,704C 648.707,704.487 647.707,702.987 649.5,699.5 Z"/></g>
<g><path style="opacity:0.495" fill="#000000" d="M 846.5,699.5 C 850.161,699.35 851.161,700.85 849.5,704C 845.707,704.487 844.707,702.987 846.5,699.5 Z"/></g>
<g><path style="opacity:0.647" fill="#000000" d="M 652.5,706.5 C 653.833,706.5 655.167,706.5 656.5,706.5C 656.5,707.833 656.5,709.167 656.5,710.5C 655.167,710.5 653.833,710.5 652.5,710.5C 652.5,709.167 652.5,707.833 652.5,706.5 Z"/></g>
<g><path style="opacity:0.645" fill="#000000" d="M 842.5,706.5 C 843.833,706.5 845.167,706.5 846.5,706.5C 846.5,707.833 846.5,709.167 846.5,710.5C 845.167,710.5 843.833,710.5 842.5,710.5C 842.5,709.167 842.5,707.833 842.5,706.5 Z"/></g>
<g><path style="opacity:0.648" fill="#000000" d="M 656.5,712.5 C 657.833,712.5 659.167,712.5 660.5,712.5C 660.5,713.833 660.5,715.167 660.5,716.5C 659.167,716.5 657.833,716.5 656.5,716.5C 656.5,715.167 656.5,713.833 656.5,712.5 Z"/></g>
<g><path style="opacity:0.575" fill="#000000" d="M 838.5,712.5 C 840.665,712.116 842.332,712.783 843.5,714.5C 842.332,716.217 840.665,716.884 838.5,716.5C 838.5,715.167 838.5,713.833 838.5,712.5 Z"/></g>
<g><path style="opacity:0.576" fill="#000000" d="M 660.5,718.5 C 662.665,718.116 664.332,718.783 665.5,720.5C 664.332,722.217 662.665,722.884 660.5,722.5C 660.5,721.167 660.5,719.833 660.5,718.5 Z"/></g>
<g><path style="opacity:0.61" fill="#000000" d="M 834.5,718.5 C 835.833,718.5 837.167,718.5 838.5,718.5C 838.5,719.833 838.5,721.167 838.5,722.5C 834.529,723.204 833.195,721.871 834.5,718.5 Z"/></g>
<g><path style="opacity:0.574" fill="#000000" d="M 666.5,723.5 C 669.084,724.048 670.084,725.715 669.5,728.5C 668.167,728.5 666.833,728.5 665.5,728.5C 665.366,726.708 665.699,725.042 666.5,723.5 Z"/></g>
<g><path style="opacity:0.575" fill="#000000" d="M 830.5,723.5 C 833.084,724.048 834.084,725.715 833.5,728.5C 832.167,728.5 830.833,728.5 829.5,728.5C 829.366,726.708 829.699,725.042 830.5,723.5 Z"/></g>
<g><path style="opacity:0.576" fill="#000000" d="M 670.5,729.5 C 672.665,729.116 674.332,729.783 675.5,731.5C 674.332,733.217 672.665,733.884 670.5,733.5C 670.5,732.167 670.5,730.833 670.5,729.5 Z"/></g>
<g><path style="opacity:0.647" fill="#000000" d="M 824.5,729.5 C 825.833,729.5 827.167,729.5 828.5,729.5C 828.5,730.833 828.5,732.167 828.5,733.5C 827.167,733.5 825.833,733.5 824.5,733.5C 824.5,732.167 824.5,730.833 824.5,729.5 Z"/></g>
<g><path style="opacity:0.577" fill="#000000" d="M 676.5,734.5 C 677.833,734.5 679.167,734.5 680.5,734.5C 680.5,735.833 680.5,737.167 680.5,738.5C 676.56,739.234 675.227,737.901 676.5,734.5 Z"/></g>
<g><path style="opacity:0.576" fill="#000000" d="M 818.5,734.5 C 820.167,734.5 821.833,734.5 823.5,734.5C 823.65,738.161 822.15,739.161 819,737.5C 818.517,736.552 818.351,735.552 818.5,734.5 Z"/></g>
<g><path style="opacity:0.493" fill="#000000" d="M 682.5,738.5 C 686.161,738.35 687.161,739.85 685.5,743C 681.707,743.487 680.707,741.987 682.5,738.5 Z"/></g>
<g><path style="opacity:0.519" fill="#000000" d="M 813.5,738.5 C 817.161,738.35 818.161,739.85 816.5,743C 813.14,743.118 812.14,741.618 813.5,738.5 Z"/></g>
<g><path style="opacity:0.493" fill="#000000" d="M 688.5,742.5 C 692.161,742.35 693.161,743.85 691.5,747C 687.707,747.487 686.707,745.987 688.5,742.5 Z"/></g>
<g><path style="opacity:0.493" fill="#000000" d="M 807.5,742.5 C 811.161,742.35 812.161,743.85 810.5,747C 806.707,747.487 805.707,745.987 807.5,742.5 Z"/></g>
<g><path style="opacity:0.574" fill="#000000" d="M 694.5,746.5 C 695.833,746.5 697.167,746.5 698.5,746.5C 698.884,748.665 698.217,750.332 696.5,751.5C 694.783,750.332 694.116,748.665 694.5,746.5 Z"/></g>
<g><path style="opacity:0.544" fill="#000000" d="M 801.5,746.5 C 806.34,747.188 806.673,748.855 802.5,751.5C 800.296,750.218 799.962,748.551 801.5,746.5 Z"/></g>
<g><path style="opacity:0.494" fill="#000000" d="M 701.5,749.5 C 705.161,749.35 706.161,750.85 704.5,754C 700.707,754.487 699.707,752.987 701.5,749.5 Z"/></g>
<g><path style="opacity:0.493" fill="#000000" d="M 794.5,749.5 C 798.161,749.35 799.161,750.85 797.5,754C 793.707,754.487 792.707,752.987 794.5,749.5 Z"/></g>
<g><path style="opacity:0.496" fill="#000000" d="M 708.5,752.5 C 712.161,752.35 713.161,753.85 711.5,757C 707.707,757.487 706.707,755.987 708.5,752.5 Z"/></g>
<g><path style="opacity:0.578" fill="#000000" d="M 787.5,752.5 C 791.161,752.35 792.161,753.85 790.5,757C 789.552,757.483 788.552,757.649 787.5,757.5C 787.5,755.833 787.5,754.167 787.5,752.5 Z"/></g>
<g><path style="opacity:0.578" fill="#000000" d="M 714.5,755.5 C 716.665,755.116 718.332,755.783 719.5,757.5C 718.332,759.217 716.665,759.884 714.5,759.5C 714.5,758.167 714.5,756.833 714.5,755.5 Z"/></g>
<g><path style="opacity:0.653" fill="#000000" d="M 780.5,755.5 C 781.833,755.5 783.167,755.5 784.5,755.5C 784.5,756.833 784.5,758.167 784.5,759.5C 783.167,759.5 781.833,759.5 780.5,759.5C 780.5,758.167 780.5,756.833 780.5,755.5 Z"/></g>
<g><path style="opacity:0.578" fill="#000000" d="M 721.5,757.5 C 723.167,757.5 724.833,757.5 726.5,757.5C 726.65,761.161 725.15,762.161 722,760.5C 721.517,759.552 721.351,758.552 721.5,757.5 Z"/></g>
<g><path style="opacity:0.577" fill="#000000" d="M 773.5,757.5 C 774.833,757.5 776.167,757.5 777.5,757.5C 777.5,758.833 777.5,760.167 777.5,761.5C 773.56,762.234 772.227,760.901 773.5,757.5 Z"/></g>
<g><path style="opacity:0.549" fill="#000000" d="M 729.5,758.5 C 733.161,758.35 734.161,759.85 732.5,763C 729.273,762.944 728.273,761.444 729.5,758.5 Z"/></g>
<g><path style="opacity:0.495" fill="#000000" d="M 766.5,758.5 C 770.161,758.35 771.161,759.85 769.5,763C 765.707,763.487 764.707,761.987 766.5,758.5 Z"/></g>
<g><path style="opacity:0.58" fill="#000000" d="M 736.5,759.5 C 737.833,759.5 739.167,759.5 740.5,759.5C 740.884,761.665 740.217,763.332 738.5,764.5C 736.783,763.332 736.116,761.665 736.5,759.5 Z"/></g>
<g><path style="opacity:0.546" fill="#000000" d="M 745.5,759.5 C 749.234,760.974 749.4,762.64 746,764.5C 742.928,763.119 742.761,761.452 745.5,759.5 Z"/></g>
<g><path style="opacity:0.578" fill="#000000" d="M 752.5,759.5 C 754.759,760.344 755.759,762.011 755.5,764.5C 750.967,764.42 749.967,762.754 752.5,759.5 Z"/></g>
<g><path style="opacity:0.547" fill="#000000" d="M 758.5,759.5 C 763.584,759.966 764.25,761.632 760.5,764.5C 758.783,763.332 758.116,761.665 758.5,759.5 Z"/></g>
<g><path style="opacity:0.937" fill="#000000" d="M 743.5,822.5 C 747.833,822.5 752.167,822.5 756.5,822.5C 756.789,826.106 756.456,829.606 755.5,833C 750.576,833.559 745.742,834.393 741,835.5C 740.5,870.165 740.333,904.832 740.5,939.5C 752.563,939.496 764.563,938.83 776.5,937.5C 778.299,928.904 779.633,920.237 780.5,911.5C 784.167,911.5 787.833,911.5 791.5,911.5C 790.783,923.82 790.449,936.153 790.5,948.5C 763.819,950.093 737.153,951.76 710.5,953.5C 710.5,949.833 710.5,946.167 710.5,942.5C 715.484,941.725 720.484,941.058 725.5,940.5C 726.833,905.5 726.833,870.5 725.5,835.5C 720.5,835.5 715.5,835.5 710.5,835.5C 710.5,831.833 710.5,828.167 710.5,824.5C 721.689,824.45 732.689,823.783 743.5,822.5 Z"/></g>
</svg>
